<svg width="19" height="21" viewBox="0 0 19 21" fill="none" xmlns="http://www.w3.org/2000/svg">
<path d="M18.5234 12.8438L16.8438 11.9062C17.0391 10.9688 17.0391 10.0703 16.8438 9.13281L18.5234 8.19531C18.7188 8.07812 18.7969 7.84375 18.7188 7.64844C18.2891 6.24219 17.5469 4.99219 16.6094 3.9375C16.4531 3.78125 16.2188 3.74219 16.0234 3.85938L14.3438 4.79688C13.6406 4.21094 12.8594 3.74219 12 3.42969V1.51562C12 1.32031 11.8438 1.125 11.6094 1.08594C10.1641 0.734375 8.71875 0.773438 7.35156 1.08594C7.11719 1.125 7 1.32031 7 1.51562V3.42969C6.10156 3.74219 5.32031 4.21094 4.61719 4.83594L2.9375 3.85938C2.74219 3.74219 2.50781 3.78125 2.35156 3.9375C1.41406 4.99219 0.671875 6.24219 0.242188 7.64844C0.164062 7.84375 0.242188 8.07812 0.4375 8.19531L2.11719 9.13281C1.96094 10.0703 1.96094 10.9688 2.11719 11.9062L0.4375 12.8438C0.242188 12.9609 0.164062 13.1953 0.242188 13.3906C0.671875 14.7969 1.41406 16.0469 2.35156 17.1016C2.50781 17.2578 2.74219 17.2969 2.9375 17.1797L4.61719 16.2422C5.32031 16.8281 6.10156 17.2969 7 17.6094V19.5234C7 19.7188 7.15625 19.9141 7.35156 19.9922C8.79688 20.3047 10.2422 20.2656 11.6094 19.9922C11.8438 19.9141 12 19.7188 12 19.5234V17.6094C12.8594 17.2969 13.6406 16.8281 14.3438 16.2422L16.0234 17.1797C16.2188 17.2969 16.4531 17.2578 16.6094 17.1016C17.5859 16.0469 18.2891 14.7969 18.7578 13.3906C18.7969 13.1953 18.7188 12.9609 18.5234 12.8438ZM9.5 13.625C7.74219 13.625 6.375 12.2578 6.375 10.5C6.375 8.78125 7.74219 7.375 9.5 7.375C11.2188 7.375 12.625 8.78125 12.625 10.5C12.625 12.2578 11.2188 13.625 9.5 13.625Z" fill="#ABB0C0"/>
</svg>
