<svg width="21" height="15" viewBox="0 0 21 15" fill="none" xmlns="http://www.w3.org/2000/svg">
<path d="M20.1094 4.96094C19.2109 5.66406 18.0781 6.52344 14.0938 9.41406C13.3125 10 11.8672 11.2891 10.5 11.2891C9.09375 11.2891 7.6875 10 6.86719 9.41406C2.88281 6.52344 1.75 5.66406 0.851562 4.96094C0.695312 4.84375 0.5 4.96094 0.5 5.15625V13.125C0.5 14.1797 1.32031 15 2.375 15H18.625C19.6406 15 20.5 14.1797 20.5 13.125V5.15625C20.5 4.96094 20.2656 4.84375 20.1094 4.96094ZM10.5 10C11.3984 10.0391 12.6875 8.86719 13.3516 8.39844C18.5469 4.64844 18.9375 4.29688 20.1094 3.35938C20.3438 3.20312 20.5 2.92969 20.5 2.61719V1.875C20.5 0.859375 19.6406 0 18.625 0H2.375C1.32031 0 0.5 0.859375 0.5 1.875V2.61719C0.5 2.92969 0.617188 3.20312 0.851562 3.35938C2.02344 4.29688 2.41406 4.64844 7.60938 8.39844C8.27344 8.86719 9.5625 10.0391 10.5 10Z" fill="#ABB0C0"/>
</svg>
