<svg width="32" height="33" viewBox="0 0 32 33" fill="none" xmlns="http://www.w3.org/2000/svg">
<path d="M32 16.2734C32 15.6484 31.625 15.0859 31.0625 14.8359L24.8125 12.0859L31.0625 9.39844C31.625 9.14844 32 8.58594 32 7.96094C32 7.33594 31.625 6.77344 31.0625 6.58594L16.9375 0.460938C16.3125 0.148438 15.625 0.148438 15 0.460938L0.875 6.58594C0.3125 6.77344 0 7.33594 0 7.96094C0 8.58594 0.3125 9.14844 0.875 9.39844L7.125 12.0859L0.875 14.8359C0.3125 15.0859 0 15.6484 0 16.2734C0 16.8359 0.3125 17.3984 0.875 17.6484L7.125 20.3984L0.875 23.0859C0.3125 23.3359 0 23.8984 0 24.5234C0 25.1484 0.3125 25.7109 0.875 25.8984L15 32.0234C15.25 32.1484 15.6875 32.2109 15.9375 32.2109C16.3125 32.2109 16.625 32.1484 16.9375 32.0234L31.0625 25.8984C31.625 25.7109 31.9375 25.1484 31.9375 24.5234C31.9375 23.8984 31.625 23.3359 31.0625 23.0859L24.8125 20.3984L31.0625 17.6484C31.625 17.3984 32 16.8359 32 16.2734ZM2.8125 7.96094L15.8125 2.33594C15.9375 2.27344 16 2.27344 16.125 2.33594L29.125 7.96094L16.125 13.6484C16 13.6484 15.9375 13.6484 15.8125 13.6484L2.8125 7.96094ZM29.125 24.5234L16.125 30.1484C16 30.2109 15.9375 30.2109 15.8125 30.1484L2.8125 24.5234L9.6875 21.5234L15 23.7734C15.25 23.8984 15.6875 23.9609 16 23.9609C16.3125 23.9609 16.625 23.8984 16.9375 23.7734L22.25 21.5234L29.125 24.5234ZM16.125 21.8984C16 21.9609 15.9375 21.9609 15.8125 21.8984L2.8125 16.2109L9.75 13.2109L15 15.5234C15.25 15.6484 15.6875 15.7109 16 15.7109C16.3125 15.7109 16.625 15.6484 16.9375 15.5234L22.25 13.2109L29.125 16.2734L16.125 21.8984Z" fill="#A1A7B8"/>
</svg>
