<svg width="23" height="21" viewBox="0 0 23 21" fill="none" xmlns="http://www.w3.org/2000/svg">
<path d="M2.75 15.5H1.5C0.796875 15.5 0.25 16.0859 0.25 16.75V19.25C0.25 19.9531 0.796875 20.5 1.5 20.5H2.75C3.41406 20.5 4 19.9531 4 19.25V16.75C4 16.0859 3.41406 15.5 2.75 15.5ZM9 10.5H7.75C7.04688 10.5 6.5 11.0859 6.5 11.75V19.25C6.5 19.9531 7.04688 20.5 7.75 20.5H9C9.66406 20.5 10.25 19.9531 10.25 19.25V11.75C10.25 11.0859 9.66406 10.5 9 10.5ZM15.25 5.5H14C13.2969 5.5 12.75 6.08594 12.75 6.75V19.25C12.75 19.9531 13.2969 20.5 14 20.5H15.25C15.9141 20.5 16.5 19.9531 16.5 19.25V6.75C16.5 6.08594 15.9141 5.5 15.25 5.5ZM21.5 0.5H20.25C19.5469 0.5 19 1.08594 19 1.75V19.25C19 19.9531 19.5469 20.5 20.25 20.5H21.5C22.1641 20.5 22.75 19.9531 22.75 19.25V1.75C22.75 1.08594 22.1641 0.5 21.5 0.5Z" fill="#ABB0C0"/>
</svg>
