<svg width="13" height="12" viewBox="0 0 13 12" fill="none" xmlns="http://www.w3.org/2000/svg">
<path d="M7.78516 5.75L11.4062 2.16406L12.1445 1.42578C12.25 1.32031 12.25 1.14453 12.1445 1.00391L11.3711 0.230469C11.2305 0.125 11.0547 0.125 10.9492 0.230469L6.625 4.58984L2.26562 0.230469C2.16016 0.125 1.98438 0.125 1.84375 0.230469L1.07031 1.00391C0.964844 1.14453 0.964844 1.32031 1.07031 1.42578L5.42969 5.75L1.07031 10.1094C0.964844 10.2148 0.964844 10.3906 1.07031 10.5312L1.84375 11.3047C1.98438 11.4102 2.16016 11.4102 2.26562 11.3047L6.625 6.94531L10.2109 10.5664L10.9492 11.3047C11.0547 11.4102 11.2305 11.4102 11.3711 11.3047L12.1445 10.5312C12.25 10.3906 12.25 10.2148 12.1445 10.1094L7.78516 5.75Z" fill="#6A7082"/>
</svg>
