<svg width="10" height="12" viewBox="0 0 10 12" fill="none" xmlns="http://www.w3.org/2000/svg">
<path d="M0.6875 10.3438C0.6875 10.9238 1.13867 11.375 1.71875 11.375H7.90625C8.46484 11.375 8.9375 10.9238 8.9375 10.3438V3.125H0.6875V10.3438ZM6.53125 4.84375C6.53125 4.67188 6.68164 4.5 6.875 4.5C7.04688 4.5 7.21875 4.67188 7.21875 4.84375V9.65625C7.21875 9.84961 7.04688 10 6.875 10C6.68164 10 6.53125 9.84961 6.53125 9.65625V4.84375ZM4.46875 4.84375C4.46875 4.67188 4.61914 4.5 4.8125 4.5C4.98438 4.5 5.15625 4.67188 5.15625 4.84375V9.65625C5.15625 9.84961 4.98438 10 4.8125 10C4.61914 10 4.46875 9.84961 4.46875 9.65625V4.84375ZM2.40625 4.84375C2.40625 4.67188 2.55664 4.5 2.75 4.5C2.92188 4.5 3.09375 4.67188 3.09375 4.84375V9.65625C3.09375 9.84961 2.92188 10 2.75 10C2.55664 10 2.40625 9.84961 2.40625 9.65625V4.84375ZM9.28125 1.0625H6.70312L6.48828 0.675781C6.40234 0.503906 6.20898 0.375 6.03711 0.375H3.56641C3.39453 0.375 3.17969 0.503906 3.11523 0.675781L2.92188 1.0625H0.34375C0.150391 1.0625 0 1.23438 0 1.40625V2.09375C0 2.28711 0.150391 2.4375 0.34375 2.4375H9.28125C9.45312 2.4375 9.625 2.28711 9.625 2.09375V1.40625C9.625 1.23438 9.45312 1.0625 9.28125 1.0625Z" fill="white"/>
</svg>
