<svg xmlns="http://www.w3.org/2000/svg" width="36" height="48" viewBox="0 0 36 48">
  <path id="Icon_awesome-clipboard-list" data-name="Icon awesome-clipboard-list" d="M31.5,6H24A6,6,0,0,0,12,6H4.5A4.5,4.5,0,0,0,0,10.5v33A4.5,4.5,0,0,0,4.5,48h27A4.5,4.5,0,0,0,36,43.5v-33A4.5,4.5,0,0,0,31.5,6ZM9,39.75a2.25,2.25,0,1,1,2.25-2.25A2.245,2.245,0,0,1,9,39.75Zm0-9a2.25,2.25,0,1,1,2.25-2.25A2.245,2.245,0,0,1,9,30.75Zm0-9a2.25,2.25,0,1,1,2.25-2.25A2.245,2.245,0,0,1,9,21.75Zm9-18A2.25,2.25,0,1,1,15.75,6,2.245,2.245,0,0,1,18,3.75Zm12,34.5a.752.752,0,0,1-.75.75H15.75a.752.752,0,0,1-.75-.75v-1.5a.752.752,0,0,1,.75-.75h13.5a.752.752,0,0,1,.75.75Zm0-9a.752.752,0,0,1-.75.75H15.75a.752.752,0,0,1-.75-.75v-1.5a.752.752,0,0,1,.75-.75h13.5a.752.752,0,0,1,.75.75Zm0-9a.752.752,0,0,1-.75.75H15.75a.752.752,0,0,1-.75-.75v-1.5a.752.752,0,0,1,.75-.75h13.5a.752.752,0,0,1,.75.75Z" fill="#4ce147"/>
</svg>
